<svg xmlns="http://www.w3.org/2000/svg" viewBox="0 0 1600 1200" font-family="Georgia, 'Times New Roman', serif">
<title>Anvil</title>
<!-- Made with the drawing kit from drawings/anvil.py: edit that and run uv run tg draw anvil. -->
<defs><filter id="ink" filterUnits="userSpaceOnUse" x="0" y="0" width="1600" height="1200"><feTurbulence type="fractalNoise" baseFrequency="0.035" numOctaves="2" seed="7"/><feDisplacementMap in="SourceGraphic" scale="2"/></filter><marker id="arrow" viewBox="0 0 10 10" refX="9" refY="5" markerWidth="7" markerHeight="7" orient="auto-start-reverse"><path d="M0,1 L10,5 L0,9" fill="none" stroke="#7a6a55" stroke-width="1.2"/></marker><pattern id="metal" width="4.471" height="4.471" patternUnits="userSpaceOnUse" patternTransform="rotate(45)"><line x1="0" y1="0" x2="0" y2="4.471" stroke="#7a6a55" stroke-width="0.522"/></pattern><pattern id="grain" width="5.961" height="3.725" patternUnits="userSpaceOnUse"><path d="M0,2.98 Q1.49,0 2.98,1.863 T5.961,0.745" fill="none" stroke="#7a6a55" stroke-width="0.447"/></pattern><pattern id="stipple" width="6.706" height="6.706" patternUnits="userSpaceOnUse"><circle cx="1.49" cy="2.235" r="0.522" fill="#7a6a55"/><circle cx="4.843" cy="5.216" r="0.447" fill="#7a6a55"/></pattern></defs>
<g data-object="" filter="url(#ink)"><g transform="matrix(1.342 0 0 -1.342 881.868 1080)"><g transform="translate(0 0)"><polygon points="-240,0 240,0 222,480 -222,480" fill="#f8f1e1" stroke="none"/><polygon points="-240,0 240,0 222,480 -222,480" fill="#9a7446" fill-opacity="0.35" stroke="#2b2118" stroke-width="1.49" stroke-linejoin="round" stroke-linecap="round"/><path d="M-160,8 Q-146,240 -149,472" fill="none" stroke="#7a6a55" stroke-width="0.671" stroke-linejoin="round" stroke-linecap="round"/><path d="M-70,8 Q-80,240 -65,472" fill="none" stroke="#7a6a55" stroke-width="0.671" stroke-linejoin="round" stroke-linecap="round"/><path d="M30,8 Q42,240 28,472" fill="none" stroke="#7a6a55" stroke-width="0.671" stroke-linejoin="round" stroke-linecap="round"/><path d="M130,8 Q118,240 121,472" fill="none" stroke="#7a6a55" stroke-width="0.671" stroke-linejoin="round" stroke-linecap="round"/><polyline points="-182,468 182,468" fill="none" stroke="#7a6a55" stroke-width="0.671" stroke-linejoin="round" stroke-linecap="round"/><polyline points="-147,468 147,468" fill="none" stroke="#7a6a55" stroke-width="0.671" stroke-linejoin="round" stroke-linecap="round"/><path d="M-150,480 L210,480 L210,515 Q122,528 105,600 L105,640 Q112,702 250,712 L250,745 L-110,745 L-110,736 L-150,736 Q-292,736 -372,712 L-372,706 Q-250,682 -130,662 Q-68,652 -65,600 L-65,560 Q-70,522 -150,515 Z" fill="#f8f1e1" stroke="none"/><path d="M-150,480 L210,480 L210,515 Q122,528 105,600 L105,640 Q112,702 250,712 L250,745 L-110,745 L-110,736 L-150,736 Q-292,736 -372,712 L-372,706 Q-250,682 -130,662 Q-68,652 -65,600 L-65,560 Q-70,522 -150,515 Z" fill="#56514b" fill-opacity="0.3" stroke="#2b2118" stroke-width="1.49" stroke-linejoin="round" stroke-linecap="round"/><rect x="-110" y="745" width="360" height="15" fill="#f8f1e1" stroke="none"/><rect x="-110" y="745" width="360" height="15" fill="#7d8288" fill-opacity="0.45" stroke="#2b2118" stroke-width="1.49" stroke-linejoin="round" stroke-linecap="round"/><polyline points="-110,752 250,752" fill="none" stroke="#7a6a55" stroke-width="0.671" stroke-linejoin="round" stroke-linecap="round"/><polyline points="205,760 205,696 230,696 230,760" fill="none" stroke="#7a6a55" stroke-width="0.745" stroke-linejoin="round" stroke-linecap="round" stroke-dasharray="4.471 2.98"/><polyline points="160,760 160,712 171,712 171,760" fill="none" stroke="#7a6a55" stroke-width="0.745" stroke-linejoin="round" stroke-linecap="round" stroke-dasharray="4.471 2.98"/><path d="M-100,760 Q70,740 240,760" fill="none" stroke="#9c3b25" stroke-width="0.969" stroke-linejoin="round" stroke-linecap="round"/><polygon points="-110,760 -90,760 -110,748" fill="#f8f1e1" fill-opacity="1" stroke="#9c3b25" stroke-width="0.969" stroke-linejoin="round" stroke-linecap="round"/><polygon points="250,760 232,760 250,750" fill="#f8f1e1" fill-opacity="1" stroke="#9c3b25" stroke-width="0.969" stroke-linejoin="round" stroke-linecap="round"/></g></g></g>
<g filter="url(#ink)"><g transform="matrix(1.342 0 0 -1.342 881.868 1080)"></g></g>
<g><circle cx="975.816" cy="72.079" r="11" fill="none" stroke="#9c3b25" stroke-width="1.2" stroke-dasharray="3 2"/><circle cx="742.289" cy="65.368" r="11" fill="none" stroke="#9c3b25" stroke-width="1.2" stroke-dasharray="3 2"/></g>
<g><g stroke="#7a6a55" stroke-width="0.8" fill="none"><line x1="734.237" y1="56" x2="734.237" y2="12"/><line x1="1217.395" y1="56" x2="1217.395" y2="12"/><line x1="734.237" y1="20" x2="1217.395" y2="20" marker-start="url(#arrow)" marker-end="url(#arrow)"/></g><text x="975.816" y="11" dy="4" font-size="12" font-style="italic" text-anchor="middle" fill="#7a6a55" transform="rotate(0 975.816 11)">36 cm</text><g stroke="#7a6a55" stroke-width="0.8" fill="none"><line x1="378.605" y1="1080" x2="356.205" y2="1080"/><line x1="378.605" y1="60" x2="356.205" y2="60"/><line x1="360.605" y1="1080" x2="360.605" y2="60" marker-start="url(#arrow)" marker-end="url(#arrow)"/></g><text x="351.605" y="570" dy="4" font-size="12" font-style="italic" text-anchor="middle" fill="#7a6a55" transform="rotate(90 351.605 570)">76 cm to the face</text></g>
<g><text x="354.605" y="69.368" font-size="13" font-style="italic" text-anchor="end" fill="#9c3b25"><tspan x="354.605" dy="0">chipped at the edges</tspan></text><polyline points="360.605,65.368 372.605,65.368 742.289,65.368" fill="none" stroke="#9c3b25" stroke-width="0.7" opacity="0.85"/><circle cx="742.289" cy="65.368" r="1.8" fill="#9c3b25"/><text x="354.605" y="115" font-size="13" font-style="italic" text-anchor="end" fill="#2b2118"><tspan x="354.605" dy="0">horn, for bending</tspan></text><polyline points="360.605,111 372.605,111 479.237,111" fill="none" stroke="#2b2118" stroke-width="0.7" opacity="0.85"/><circle cx="479.237" cy="111" r="1.8" fill="#2b2118"/><text x="354.605" y="244.395" font-size="13" font-style="italic" text-anchor="end" fill="#2b2118"><tspan x="354.605" dy="0">wrought-iron body, 76 kg in</tspan><tspan x="354.605" dy="15">all</tspan></text><polyline points="360.605,247.895 372.605,247.895 908.711,247.895" fill="none" stroke="#2b2118" stroke-width="0.7" opacity="0.85"/><circle cx="908.711" cy="247.895" r="1.8" fill="#2b2118"/><text x="1245.395" y="56.5" font-size="13" font-style="italic" text-anchor="start" fill="#2b2118"><tspan x="1245.395" dy="0">steel face, forge-welded</tspan><tspan x="1245.395" dy="15">onto the body</tspan></text><polyline points="1239.395,60 1227.395,60 908.711,60" fill="none" stroke="#2b2118" stroke-width="0.7" opacity="0.85"/><circle cx="908.711" cy="60" r="1.8" fill="#2b2118"/><text x="1245.395" y="93.5" font-size="13" font-style="italic" text-anchor="start" fill="#9c3b25"><tspan x="1245.395" dy="0">face slightly dished</tspan><tspan x="1245.395" dy="15">(exaggerated here)</tspan></text><polyline points="1239.395,97 1227.395,97 975.816,72.079" fill="none" stroke="#9c3b25" stroke-width="0.7" opacity="0.85"/><circle cx="975.816" cy="72.079" r="1.8" fill="#9c3b25"/><text x="1245.395" y="130.5" font-size="13" font-style="italic" text-anchor="start" fill="#2b2118"><tspan x="1245.395" dy="0">hardy hole, for cutting and</tspan><tspan x="1245.395" dy="15">shaping tools</tspan></text><polyline points="1239.395,134 1227.395,134 1173.105,93.553" fill="none" stroke="#2b2118" stroke-width="0.7" opacity="0.85"/><circle cx="1173.105" cy="93.553" r="1.8" fill="#2b2118"/><text x="1245.395" y="761.895" font-size="13" font-style="italic" text-anchor="start" fill="#2b2118"><tspan x="1245.395" dy="0">elm stump</tspan></text><polyline points="1239.395,757.895 1227.395,757.895 1016.079,757.895" fill="none" stroke="#2b2118" stroke-width="0.7" opacity="0.85"/><circle cx="1016.079" cy="757.895" r="1.8" fill="#2b2118"/></g>
<g><rect x="60" y="1148" width="33.553" height="6" fill="#2b2118" stroke="#2b2118" stroke-width="0.8"/><rect x="93.553" y="1148" width="33.553" height="6" fill="#f8f1e1" stroke="#2b2118" stroke-width="0.8"/><rect x="127.105" y="1148" width="33.553" height="6" fill="#2b2118" stroke="#2b2118" stroke-width="0.8"/><rect x="160.658" y="1148" width="33.553" height="6" fill="#f8f1e1" stroke="#2b2118" stroke-width="0.8"/><text x="60" y="1170" font-size="12" text-anchor="middle" fill="#7a6a55">0</text><text x="127.105" y="1170" font-size="12" text-anchor="middle" fill="#7a6a55">5</text><text x="194.211" y="1170" font-size="12" text-anchor="middle" fill="#7a6a55">10 cm</text><text x="1550" y="1136" font-size="22" font-variant="small-caps" text-anchor="end" fill="#2b2118">Anvil</text><text x="1550" y="1158" font-size="13" font-style="italic" text-anchor="end" fill="#7a6a55">Side view, horn to the west, as it stands in the smithy · to scale</text></g>
</svg>
