<svg xmlns="http://www.w3.org/2000/svg" viewBox="0 0 1600 520" font-family="Georgia, 'Times New Roman', serif">
<title>Bar iron</title>
<!-- Made with the drawing kit from drawings/bar-iron.py: edit that and run uv run tg draw bar-iron. -->
<defs><filter id="ink" filterUnits="userSpaceOnUse" x="0" y="0" width="1600" height="520"><feTurbulence type="fractalNoise" baseFrequency="0.035" numOctaves="2" seed="7"/><feDisplacementMap in="SourceGraphic" scale="2"/></filter><marker id="arrow" viewBox="0 0 10 10" refX="9" refY="5" markerWidth="7" markerHeight="7" orient="auto-start-reverse"><path d="M0,1 L10,5 L0,9" fill="none" stroke="#7a6a55" stroke-width="1.2"/></marker><pattern id="metal" width="22.47" height="22.47" patternUnits="userSpaceOnUse" patternTransform="rotate(45)"><line x1="0" y1="0" x2="0" y2="22.47" stroke="#7a6a55" stroke-width="2.621"/></pattern><pattern id="grain" width="29.96" height="18.725" patternUnits="userSpaceOnUse"><path d="M0,14.98 Q7.49,0 14.98,9.363 T29.96,3.745" fill="none" stroke="#7a6a55" stroke-width="2.247"/></pattern><pattern id="stipple" width="33.705" height="33.705" patternUnits="userSpaceOnUse"><circle cx="7.49" cy="11.235" r="2.621" fill="#7a6a55"/><circle cx="24.343" cy="26.215" r="2.247" fill="#7a6a55"/></pattern></defs>
<g data-object="" filter="url(#ink)"><g transform="matrix(0.267 0 0 -0.267 799.332 246.155)"><g transform="translate(0 0)"><rect x="-1850" y="0" width="3700" height="13" fill="#f8f1e1" stroke="none"/><rect x="-1850" y="0" width="3700" height="13" fill="#56514b" fill-opacity="0.3" stroke="#2b2118" stroke-width="1.2" vector-effect="non-scaling-stroke" stroke-linejoin="round" stroke-linecap="round"/><rect x="-1832" y="13" width="3700" height="13" fill="#f8f1e1" stroke="none"/><rect x="-1832" y="13" width="3700" height="13" fill="#56514b" fill-opacity="0.3" stroke="#2b2118" stroke-width="1.2" vector-effect="non-scaling-stroke" stroke-linejoin="round" stroke-linecap="round"/><rect x="-1862" y="26" width="3700" height="13" fill="#f8f1e1" stroke="none"/><rect x="-1862" y="26" width="3700" height="13" fill="#56514b" fill-opacity="0.3" stroke="#2b2118" stroke-width="1.2" vector-effect="non-scaling-stroke" stroke-linejoin="round" stroke-linecap="round"/><rect x="-1825" y="39" width="3700" height="13" fill="#f8f1e1" stroke="none"/><rect x="-1825" y="39" width="3700" height="13" fill="#56514b" fill-opacity="0.3" stroke="#2b2118" stroke-width="1.2" vector-effect="non-scaling-stroke" stroke-linejoin="round" stroke-linecap="round"/><rect x="-1870" y="52" width="3700" height="13" fill="#f8f1e1" stroke="none"/><rect x="-1870" y="52" width="3700" height="13" fill="#56514b" fill-opacity="0.3" stroke="#2b2118" stroke-width="1.2" vector-effect="non-scaling-stroke" stroke-linejoin="round" stroke-linecap="round"/><rect x="-1842" y="65" width="3700" height="13" fill="#f8f1e1" stroke="none"/><rect x="-1842" y="65" width="3700" height="13" fill="#56514b" fill-opacity="0.3" stroke="#2b2118" stroke-width="1.2" vector-effect="non-scaling-stroke" stroke-linejoin="round" stroke-linecap="round"/><rect x="-1855" y="78" width="3700" height="13" fill="#f8f1e1" stroke="none"/><rect x="-1855" y="78" width="3700" height="13" fill="#56514b" fill-opacity="0.3" stroke="#2b2118" stroke-width="1.2" vector-effect="non-scaling-stroke" stroke-linejoin="round" stroke-linecap="round"/><ellipse cx="-900" cy="32" rx="130" ry="2.2" fill="#f8f1e1" stroke="none"/><ellipse cx="-900" cy="32" rx="130" ry="2.2" fill="#9c3b25" fill-opacity="0.55" stroke="none"/><ellipse cx="-200" cy="33" rx="90" ry="2.2" fill="#f8f1e1" stroke="none"/><ellipse cx="-200" cy="33" rx="90" ry="2.2" fill="#9c3b25" fill-opacity="0.55" stroke="none"/><ellipse cx="600" cy="19" rx="160" ry="2.2" fill="#f8f1e1" stroke="none"/><ellipse cx="600" cy="19" rx="160" ry="2.2" fill="#9c3b25" fill-opacity="0.55" stroke="none"/><ellipse cx="1200" cy="58" rx="100" ry="2.2" fill="#f8f1e1" stroke="none"/><ellipse cx="1200" cy="58" rx="100" ry="2.2" fill="#9c3b25" fill-opacity="0.55" stroke="none"/><ellipse cx="-1400" cy="71" rx="75" ry="2.2" fill="#f8f1e1" stroke="none"/><ellipse cx="-1400" cy="71" rx="75" ry="2.2" fill="#9c3b25" fill-opacity="0.55" stroke="none"/><rect x="-1354" y="-3" width="8" height="97" fill="#f8f1e1" stroke="none"/><rect x="-1354" y="-3" width="8" height="97" fill="#56514b" fill-opacity="0.3" stroke="#2b2118" stroke-width="1.2" vector-effect="non-scaling-stroke" stroke-linejoin="round" stroke-linecap="round"/><path d="M-1350,94 q14,22 -6,30" fill="none" stroke="#2b2118" stroke-width="1.2" vector-effect="non-scaling-stroke" stroke-linejoin="round" stroke-linecap="round"/><rect x="-454" y="-3" width="8" height="97" fill="#f8f1e1" stroke="none"/><rect x="-454" y="-3" width="8" height="97" fill="#56514b" fill-opacity="0.3" stroke="#2b2118" stroke-width="1.2" vector-effect="non-scaling-stroke" stroke-linejoin="round" stroke-linecap="round"/><path d="M-450,94 q14,22 -6,30" fill="none" stroke="#2b2118" stroke-width="1.2" vector-effect="non-scaling-stroke" stroke-linejoin="round" stroke-linecap="round"/><rect x="446" y="-3" width="8" height="97" fill="#f8f1e1" stroke="none"/><rect x="446" y="-3" width="8" height="97" fill="#56514b" fill-opacity="0.3" stroke="#2b2118" stroke-width="1.2" vector-effect="non-scaling-stroke" stroke-linejoin="round" stroke-linecap="round"/><path d="M450,94 q14,22 -6,30" fill="none" stroke="#2b2118" stroke-width="1.2" vector-effect="non-scaling-stroke" stroke-linejoin="round" stroke-linecap="round"/><rect x="1346" y="-3" width="8" height="97" fill="#f8f1e1" stroke="none"/><rect x="1346" y="-3" width="8" height="97" fill="#56514b" fill-opacity="0.3" stroke="#2b2118" stroke-width="1.2" vector-effect="non-scaling-stroke" stroke-linejoin="round" stroke-linecap="round"/><path d="M1350,94 q14,22 -6,30" fill="none" stroke="#2b2118" stroke-width="1.2" vector-effect="non-scaling-stroke" stroke-linejoin="round" stroke-linecap="round"/></g></g></g>
<g><circle cx="959.546" cy="241.081" r="11" fill="none" stroke="#9c3b25" stroke-width="1.2" stroke-dasharray="3 2"/></g>
<g><g stroke="#7a6a55" stroke-width="0.8" fill="none"><line x1="305.34" y1="250.155" x2="305.34" y2="282.155"/><line x1="1293.324" y1="250.155" x2="1293.324" y2="282.155"/><line x1="305.34" y1="276.155" x2="1293.324" y2="276.155" marker-start="url(#arrow)" marker-end="url(#arrow)"/></g><text x="799.332" y="285.155" dy="4" font-size="12" font-style="italic" text-anchor="middle" fill="#7a6a55" transform="rotate(0 799.332 285.155)">3.7 m</text></g>
<g><text x="272" y="223.139" font-size="13" font-style="italic" text-anchor="end" fill="#2b2118"><tspan x="272" dy="0">seven wrought-iron flat</tspan><tspan x="272" dy="15">bars, 38 by 13 mm, 100 kg in</tspan><tspan x="272" dy="15">all, from a Bristol merchant</tspan></text><polyline points="278,234.139 290,234.139 305.34,234.139" fill="none" stroke="#2b2118" stroke-width="0.7" opacity="0.85"/><circle cx="305.34" cy="234.139" r="1.8" fill="#2b2118"/><text x="1328" y="225.055" font-size="13" font-style="italic" text-anchor="start" fill="#2b2118"><tspan x="1328" dy="0">bound with wire</tspan></text><polyline points="1322,221.055 1310,221.055 919.493,221.055" fill="none" stroke="#2b2118" stroke-width="0.7" opacity="0.85"/><circle cx="919.493" cy="221.055" r="1.8" fill="#2b2118"/><text x="1328" y="247.055" font-size="13" font-style="italic" text-anchor="start" fill="#9c3b25"><tspan x="1328" dy="0">streaks of slag along the</tspan><tspan x="1328" dy="15">grain: ordinary merchant bar</tspan></text><polyline points="1322,250.555 1310,250.555 959.546,241.081" fill="none" stroke="#9c3b25" stroke-width="0.7" opacity="0.85"/><circle cx="959.546" cy="241.081" r="1.8" fill="#9c3b25"/></g>
<g><rect x="60" y="468" width="33.378" height="6" fill="#2b2118" stroke="#2b2118" stroke-width="0.8"/><rect x="93.378" y="468" width="33.378" height="6" fill="#f8f1e1" stroke="#2b2118" stroke-width="0.8"/><rect x="126.756" y="468" width="33.378" height="6" fill="#2b2118" stroke="#2b2118" stroke-width="0.8"/><rect x="160.134" y="468" width="33.378" height="6" fill="#f8f1e1" stroke="#2b2118" stroke-width="0.8"/><text x="60" y="490" font-size="12" text-anchor="middle" fill="#7a6a55">0</text><text x="126.756" y="490" font-size="12" text-anchor="middle" fill="#7a6a55">25</text><text x="193.511" y="490" font-size="12" text-anchor="middle" fill="#7a6a55">50 cm</text><text x="1550" y="456" font-size="22" font-variant="small-caps" text-anchor="end" fill="#2b2118">Bar iron</text><text x="1550" y="478" font-size="13" font-style="italic" text-anchor="end" fill="#7a6a55">The bundle from the side · to scale</text></g>
</svg>
