<svg xmlns="http://www.w3.org/2000/svg" viewBox="0 0 1600 1200" font-family="Georgia, 'Times New Roman', serif">
<title>Carpenter's tools</title>
<!-- Made with the drawing kit from drawings/carpentry-tools.py: edit that and run uv run tg draw carpentry-tools. -->
<defs><filter id="ink" filterUnits="userSpaceOnUse" x="0" y="0" width="1600" height="1200"><feTurbulence type="fractalNoise" baseFrequency="0.035" numOctaves="2" seed="7"/><feDisplacementMap in="SourceGraphic" scale="2"/></filter><marker id="arrow" viewBox="0 0 10 10" refX="9" refY="5" markerWidth="7" markerHeight="7" orient="auto-start-reverse"><path d="M0,1 L10,5 L0,9" fill="none" stroke="#7a6a55" stroke-width="1.2"/></marker><pattern id="metal" width="9.21" height="9.21" patternUnits="userSpaceOnUse" patternTransform="rotate(45)"><line x1="0" y1="0" x2="0" y2="9.21" stroke="#7a6a55" stroke-width="1.075"/></pattern><pattern id="grain" width="12.28" height="7.675" patternUnits="userSpaceOnUse"><path d="M0,6.14 Q3.07,0 6.14,3.838 T12.28,1.535" fill="none" stroke="#7a6a55" stroke-width="0.921"/></pattern><pattern id="stipple" width="13.815" height="13.815" patternUnits="userSpaceOnUse"><circle cx="3.07" cy="4.605" r="1.075" fill="#7a6a55"/><circle cx="9.978" cy="10.745" r="0.921" fill="#7a6a55"/></pattern></defs>
<g data-object="" filter="url(#ink)"><g transform="matrix(0.651 0 0 -0.651 756.026 957.622)"><g transform="translate(0 0)"><g transform="translate(0 0)"><rect x="-700" y="760" width="1400" height="90" fill="#f8f1e1" stroke="none"/><rect x="-700" y="760" width="1400" height="90" fill="#9a7446" fill-opacity="0.35" stroke="#2b2118" stroke-width="3.07" stroke-linejoin="round" stroke-linecap="round"/><rect x="-640" y="0" width="80" height="760" fill="#f8f1e1" stroke="none"/><rect x="-640" y="0" width="80" height="760" fill="#9a7446" fill-opacity="0.35" stroke="#2b2118" stroke-width="1.842" stroke-linejoin="round" stroke-linecap="round"/><rect x="560" y="0" width="80" height="760" fill="#f8f1e1" stroke="none"/><rect x="560" y="0" width="80" height="760" fill="#9a7446" fill-opacity="0.35" stroke="#2b2118" stroke-width="1.842" stroke-linejoin="round" stroke-linecap="round"/><rect x="-640" y="180" width="1280" height="40" fill="#f8f1e1" stroke="none"/><rect x="-640" y="180" width="1280" height="40" fill="#9a7446" fill-opacity="0.35" stroke="#2b2118" stroke-width="1.842" stroke-linejoin="round" stroke-linecap="round"/></g><rect x="-660" y="860" width="24" height="330" fill="#f8f1e1" stroke="none"/><rect x="-660" y="860" width="24" height="330" fill="#9a7446" fill-opacity="0.35" stroke="#2b2118" stroke-width="1.842" stroke-linejoin="round" stroke-linecap="round"/><rect x="-270" y="860" width="24" height="330" fill="#f8f1e1" stroke="none"/><rect x="-270" y="860" width="24" height="330" fill="#9a7446" fill-opacity="0.35" stroke="#2b2118" stroke-width="1.842" stroke-linejoin="round" stroke-linecap="round"/><rect x="-640" y="1010" width="380" height="18" fill="#f8f1e1" stroke="none"/><rect x="-640" y="1010" width="380" height="18" fill="#9a7446" fill-opacity="0.35" stroke="#2b2118" stroke-width="1.842" stroke-linejoin="round" stroke-linecap="round"/><rect x="-660" y="870" width="414" height="10" fill="#f8f1e1" stroke="none"/><rect x="-660" y="870" width="414" height="10" fill="#56514b" fill-opacity="0.3" stroke="#2b2118" stroke-width="1.842" stroke-linejoin="round" stroke-linecap="round"/><polyline points="-650,1185 -258,1185" fill="none" stroke="#2b2118" stroke-width="1.842" stroke-linejoin="round" stroke-linecap="round"/><polyline points="-470,1185 -440,1040" fill="none" stroke="#2b2118" stroke-width="1.842" stroke-linejoin="round" stroke-linecap="round"/><path d="M-220,850 L180,850 L180,910 Q170,922 150,922 L-200,922 Q-220,920 -220,890 Z" fill="#f8f1e1" stroke="none"/><path d="M-220,850 L180,850 L180,910 Q170,922 150,922 L-200,922 Q-220,920 -220,890 Z" fill="#9a7446" fill-opacity="0.35" stroke="#2b2118" stroke-width="3.07" stroke-linejoin="round" stroke-linecap="round"/><path d="M40,922 Q30,1000 60,1015 L95,1015 Q110,970 115,922 Z" fill="#f8f1e1" stroke="none"/><path d="M40,922 Q30,1000 60,1015 L95,1015 Q110,970 115,922 Z" fill="#9a7446" fill-opacity="0.35" stroke="#2b2118" stroke-width="1.842" stroke-linejoin="round" stroke-linecap="round"/><polygon points="-95,890 -70,985 -50,985 -70,890" fill="#f8f1e1" stroke="none"/><polygon points="-95,890 -70,985 -50,985 -70,890" fill="#56514b" fill-opacity="0.3" stroke="#2b2118" stroke-width="1.842" stroke-linejoin="round" stroke-linecap="round"/><polygon points="-62,922 -40,1000 -25,995 -45,922" fill="#f8f1e1" stroke="none"/><polygon points="-62,922 -40,1000 -25,995 -45,922" fill="#9a7446" fill-opacity="0.35" stroke="#2b2118" stroke-width="1.842" stroke-linejoin="round" stroke-linecap="round"/><rect x="220" y="850" width="200" height="64" fill="#f8f1e1" stroke="none"/><rect x="220" y="850" width="200" height="64" fill="#9a7446" fill-opacity="0.35" stroke="#2b2118" stroke-width="3.07" stroke-linejoin="round" stroke-linecap="round"/><polygon points="300,890 320,970 338,970 318,890" fill="#f8f1e1" stroke="none"/><polygon points="300,890 320,970 338,970 318,890" fill="#56514b" fill-opacity="0.3" stroke="#2b2118" stroke-width="1.842" stroke-linejoin="round" stroke-linecap="round"/><polygon points="326,914 345,985 358,980 340,914" fill="#f8f1e1" stroke="none"/><polygon points="326,914 345,985 358,980 340,914" fill="#9a7446" fill-opacity="0.35" stroke="#2b2118" stroke-width="1.842" stroke-linejoin="round" stroke-linecap="round"/><rect x="450" y="850" width="230" height="45" fill="#f8f1e1" stroke="none"/><rect x="450" y="850" width="230" height="45" fill="#9a7446" fill-opacity="0.35" stroke="#2b2118" stroke-width="1.842" stroke-linejoin="round" stroke-linecap="round"/><rect x="470" y="895" width="10" height="20" fill="#f8f1e1" stroke="none"/><rect x="470" y="895" width="10" height="20" fill="#56514b" fill-opacity="0.3" stroke="#2b2118" stroke-width="1.842" stroke-linejoin="round" stroke-linecap="round"/><polygon points="464,915 486,915 483,1035 467,1035" fill="#f8f1e1" stroke="none"/><polygon points="464,915 486,915 483,1035 467,1035" fill="#9a7446" fill-opacity="0.35" stroke="#2b2118" stroke-width="1.842" stroke-linejoin="round" stroke-linecap="round"/><rect x="525" y="895" width="10" height="20" fill="#f8f1e1" stroke="none"/><rect x="525" y="895" width="10" height="20" fill="#56514b" fill-opacity="0.3" stroke="#2b2118" stroke-width="1.842" stroke-linejoin="round" stroke-linecap="round"/><polygon points="518,915 542,915 539,1035 521,1035" fill="#f8f1e1" stroke="none"/><polygon points="518,915 542,915 539,1035 521,1035" fill="#9a7446" fill-opacity="0.35" stroke="#2b2118" stroke-width="1.842" stroke-linejoin="round" stroke-linecap="round"/><rect x="580" y="895" width="10" height="20" fill="#f8f1e1" stroke="none"/><rect x="580" y="895" width="10" height="20" fill="#56514b" fill-opacity="0.3" stroke="#2b2118" stroke-width="1.842" stroke-linejoin="round" stroke-linecap="round"/><polygon points="572,915 598,915 595,1035 575,1035" fill="#f8f1e1" stroke="none"/><polygon points="572,915 598,915 595,1035 575,1035" fill="#9a7446" fill-opacity="0.35" stroke="#2b2118" stroke-width="1.842" stroke-linejoin="round" stroke-linecap="round"/><rect x="635" y="895" width="10" height="20" fill="#f8f1e1" stroke="none"/><rect x="635" y="895" width="10" height="20" fill="#56514b" fill-opacity="0.3" stroke="#2b2118" stroke-width="1.842" stroke-linejoin="round" stroke-linecap="round"/><polygon points="626,915 654,915 651,1035 629,1035" fill="#f8f1e1" stroke="none"/><polygon points="626,915 654,915 651,1035 629,1035" fill="#9a7446" fill-opacity="0.35" stroke="#2b2118" stroke-width="1.842" stroke-linejoin="round" stroke-linecap="round"/><polygon points="712,770 830,770 790,130 742,130" fill="#f8f1e1" stroke="none"/><polygon points="712,770 830,770 790,130 742,130" fill="#56514b" fill-opacity="0.3" stroke="#2b2118" stroke-width="1.842" stroke-linejoin="round" stroke-linecap="round"/><polyline points="742,130 732.062,150 740.125,170 730.188,190 738.25,210 728.312,230 736.375,250 726.438,270 734.5,290 724.562,310 732.625,330 722.688,350 730.75,370 720.812,390 728.875,410 718.938,430 727,450 717.062,470 725.125,490 715.188,510 723.25,530 713.312,550 721.375,570 711.438,590 719.5,610 709.562,630 717.625,650 707.688,670 715.75,690 705.812,710 713.875,730 703.938,750 712,770" fill="none" stroke="#7a6a55" stroke-width="1.382" stroke-linejoin="round" stroke-linecap="round"/><path d="M712,760 L712,880 Q760,900 835,875 L835,760 Z" fill="#f8f1e1" stroke="none"/><path d="M712,760 L712,880 Q760,900 835,875 L835,760 Z" fill="#9a7446" fill-opacity="0.35" stroke="#2b2118" stroke-width="1.842" stroke-linejoin="round" stroke-linecap="round"/><ellipse cx="772" cy="830" rx="30" ry="22" fill="#f8f1e1" fill-opacity="1" stroke="#2b2118" stroke-width="1.842" stroke-linejoin="round" stroke-linecap="round"/><circle cx="700" cy="860" r="7" fill="#f8f1e1" stroke="none"/><circle cx="700" cy="860" r="7" fill="#56514b" fill-opacity="0.3" stroke="#2b2118" stroke-width="1.842" stroke-linejoin="round" stroke-linecap="round"/><polygon points="-420,0 -390,0 -330,760 -358,762" fill="#f8f1e1" stroke="none"/><polygon points="-420,0 -390,0 -330,760 -358,762" fill="#9a7446" fill-opacity="0.35" stroke="#2b2118" stroke-width="1.842" stroke-linejoin="round" stroke-linecap="round"/><path d="M-372,700 L-322,708 Q-280,690 -238,650 Q-218,735 -232,818 Q-280,785 -324,778 L-374,772 Z" fill="#f8f1e1" stroke="none"/><path d="M-372,700 L-322,708 Q-280,690 -238,650 Q-218,735 -232,818 Q-280,785 -324,778 L-374,772 Z" fill="#56514b" fill-opacity="0.3" stroke="#2b2118" stroke-width="3.07" stroke-linejoin="round" stroke-linecap="round"/><polygon points="-208,0 -192,0 -190,110 -164,640 -176,640 -206,110" fill="#f8f1e1" stroke="none"/><polygon points="-208,0 -192,0 -190,110 -164,640 -176,640 -206,110" fill="#56514b" fill-opacity="0.3" stroke="#2b2118" stroke-width="1.842" stroke-linejoin="round" stroke-linecap="round"/><rect x="-270" y="640" width="200" height="30" fill="#f8f1e1" stroke="none"/><rect x="-270" y="640" width="200" height="30" fill="#9a7446" fill-opacity="0.35" stroke="#2b2118" stroke-width="1.842" stroke-linejoin="round" stroke-linecap="round"/><polygon points="-115,0 -85,0 -83,110 -54,720 -66,720 -113,110" fill="#f8f1e1" stroke="none"/><polygon points="-115,0 -85,0 -83,110 -54,720 -66,720 -113,110" fill="#56514b" fill-opacity="0.3" stroke="#2b2118" stroke-width="1.842" stroke-linejoin="round" stroke-linecap="round"/><rect x="-180" y="720" width="240" height="30" fill="#f8f1e1" stroke="none"/><rect x="-180" y="720" width="240" height="30" fill="#9a7446" fill-opacity="0.35" stroke="#2b2118" stroke-width="1.842" stroke-linejoin="round" stroke-linecap="round"/><polygon points="-15,0 35,0 37,110 66,800 54,800 -13,110" fill="#f8f1e1" stroke="none"/><polygon points="-15,0 35,0 37,110 66,800 54,800 -13,110" fill="#56514b" fill-opacity="0.3" stroke="#2b2118" stroke-width="1.842" stroke-linejoin="round" stroke-linecap="round"/><rect x="-80" y="800" width="280" height="30" fill="#f8f1e1" stroke="none"/><rect x="-80" y="800" width="280" height="30" fill="#9a7446" fill-opacity="0.35" stroke="#2b2118" stroke-width="1.842" stroke-linejoin="round" stroke-linecap="round"/><polygon points="160,0 188,0 240,700 212,702" fill="#f8f1e1" stroke="none"/><polygon points="160,0 188,0 240,700 212,702" fill="#9a7446" fill-opacity="0.35" stroke="#2b2118" stroke-width="1.842" stroke-linejoin="round" stroke-linecap="round"/><path d="M200,690 L240,710 Q330,700 360,600 L345,595 Q318,665 248,680 L205,672 Z" fill="#f8f1e1" stroke="none"/><path d="M200,690 L240,710 Q330,700 360,600 L345,595 Q318,665 248,680 L205,672 Z" fill="#56514b" fill-opacity="0.3" stroke="#2b2118" stroke-width="1.842" stroke-linejoin="round" stroke-linecap="round"/><rect x="-330" y="220" width="330" height="16" fill="#f8f1e1" stroke="none"/><rect x="-330" y="220" width="330" height="16" fill="#56514b" fill-opacity="0.3" stroke="#2b2118" stroke-width="1.842" stroke-linejoin="round" stroke-linecap="round"/><rect x="-345" y="220" width="22" height="120" fill="#f8f1e1" stroke="none"/><rect x="-345" y="220" width="22" height="120" fill="#9a7446" fill-opacity="0.35" stroke="#2b2118" stroke-width="1.842" stroke-linejoin="round" stroke-linecap="round"/><rect x="5" y="220" width="22" height="120" fill="#f8f1e1" stroke="none"/><rect x="5" y="220" width="22" height="120" fill="#9a7446" fill-opacity="0.35" stroke="#2b2118" stroke-width="1.842" stroke-linejoin="round" stroke-linecap="round"/></g></g></g>
<g filter="url(#ink)"><g transform="matrix(0.651 0 0 -0.651 756.026 957.622)"></g></g>
<g></g>
<g><g stroke="#7a6a55" stroke-width="0.8" fill="none"><line x1="762.541" y1="929.049" x2="762.541" y2="951.449"/><line x1="795.114" y1="929.049" x2="795.114" y2="951.449"/><line x1="762.541" y1="947.049" x2="795.114" y2="947.049" marker-start="url(#arrow)" marker-end="url(#arrow)"/></g><text x="778.827" y="956.049" dy="4" font-size="12" font-style="italic" text-anchor="middle" fill="#7a6a55" transform="rotate(0 778.827 956.049)">5 cm</text></g>
<g><text x="272" y="238.495" font-size="13" font-style="italic" text-anchor="end" fill="#2b2118"><tspan x="272" dy="0">bow saw</tspan></text><polyline points="278,234.495 290,234.495 449.837,234.495" fill="none" stroke="#2b2118" stroke-width="0.7" opacity="0.85"/><circle cx="449.837" cy="234.495" r="1.8" fill="#2b2118"/><text x="272" y="368.788" font-size="13" font-style="italic" text-anchor="end" fill="#2b2118"><tspan x="272" dy="0">planes: jack and smoother</tspan></text><polyline points="278,364.788 290,364.788 742.997,364.788" fill="none" stroke="#2b2118" stroke-width="0.7" opacity="0.85"/><circle cx="742.997" cy="364.788" r="1.8" fill="#2b2118"/><text x="272" y="482.795" font-size="13" font-style="italic" text-anchor="end" fill="#2b2118"><tspan x="272" dy="0">axe</tspan></text><polyline points="278,478.795 290,478.795 580.13,478.795" fill="none" stroke="#2b2118" stroke-width="0.7" opacity="0.85"/><circle cx="580.13" cy="478.795" r="1.8" fill="#2b2118"/><text x="272" y="628.389" font-size="13" font-style="italic" text-anchor="end" fill="#2b2118"><tspan x="272" dy="0">augers (hand drills): holes</tspan><tspan x="272" dy="15">up to 5 cm across</tspan></text><polyline points="278,631.889 290,631.889 703.909,631.889" fill="none" stroke="#2b2118" stroke-width="0.7" opacity="0.85"/><circle cx="703.909" cy="631.889" r="1.8" fill="#2b2118"/><text x="272" y="807.876" font-size="13" font-style="italic" text-anchor="end" fill="#2b2118"><tspan x="272" dy="0">drawknife</tspan></text><polyline points="278,803.876 290,803.876 645.277,803.876" fill="none" stroke="#2b2118" stroke-width="0.7" opacity="0.85"/><circle cx="645.277" cy="803.876" r="1.8" fill="#2b2118"/><text x="1328" y="303.642" font-size="13" font-style="italic" text-anchor="start" fill="#2b2118"><tspan x="1328" dy="0">chisels</tspan></text><polyline points="1322,299.642 1310,299.642 1120.847,299.642" fill="none" stroke="#2b2118" stroke-width="0.7" opacity="0.85"/><circle cx="1120.847" cy="299.642" r="1.8" fill="#2b2118"/><text x="1328" y="431.964" font-size="13" font-style="italic" text-anchor="start" fill="#2b2118"><tspan x="1328" dy="0">the bench: they can make</tspan><tspan x="1328" dy="15">benches, frames, simple</tspan><tspan x="1328" dy="15">wooden pumps and troughs</tspan></text><polyline points="1322,442.964 1310,442.964 1081.759,442.964" fill="none" stroke="#2b2118" stroke-width="0.7" opacity="0.85"/><circle cx="1081.759" cy="442.964" r="1.8" fill="#2b2118"/><text x="1328" y="544.684" font-size="13" font-style="italic" text-anchor="start" fill="#2b2118"><tspan x="1328" dy="0">adze</tspan></text><polyline points="1322,540.684 1310,540.684 971.01,540.684" fill="none" stroke="#2b2118" stroke-width="0.7" opacity="0.85"/><circle cx="971.01" cy="540.684" r="1.8" fill="#2b2118"/><text x="1328" y="701.036" font-size="13" font-style="italic" text-anchor="start" fill="#2b2118"><tspan x="1328" dy="0">hand saw</tspan></text><polyline points="1322,697.036 1310,697.036 1270.684,697.036" fill="none" stroke="#2b2118" stroke-width="0.7" opacity="0.85"/><circle cx="1270.684" cy="697.036" r="1.8" fill="#2b2118"/></g>
<g><rect x="60" y="1148" width="32.573" height="6" fill="#2b2118" stroke="#2b2118" stroke-width="0.8"/><rect x="92.573" y="1148" width="32.573" height="6" fill="#f8f1e1" stroke="#2b2118" stroke-width="0.8"/><rect x="125.147" y="1148" width="32.573" height="6" fill="#2b2118" stroke="#2b2118" stroke-width="0.8"/><rect x="157.72" y="1148" width="32.573" height="6" fill="#f8f1e1" stroke="#2b2118" stroke-width="0.8"/><text x="60" y="1170" font-size="12" text-anchor="middle" fill="#7a6a55">0</text><text x="125.147" y="1170" font-size="12" text-anchor="middle" fill="#7a6a55">10</text><text x="190.293" y="1170" font-size="12" text-anchor="middle" fill="#7a6a55">20 cm</text><text x="1550" y="1136" font-size="22" font-variant="small-caps" text-anchor="end" fill="#2b2118">Carpenter's tools</text><text x="1550" y="1158" font-size="13" font-style="italic" text-anchor="end" fill="#7a6a55">On and around the bench, as they are in the smithy · to scale</text></g>
</svg>
