<svg xmlns="http://www.w3.org/2000/svg" viewBox="0 0 1600 1200" font-family="Georgia, 'Times New Roman', serif">
<title>Hearth and bellows</title>
<!-- Made with the drawing kit from drawings/forge.py: edit that and run uv run tg draw forge. -->
<defs><filter id="ink" filterUnits="userSpaceOnUse" x="0" y="0" width="1600" height="1200"><feTurbulence type="fractalNoise" baseFrequency="0.035" numOctaves="2" seed="7"/><feDisplacementMap in="SourceGraphic" scale="2"/></filter><marker id="arrow" viewBox="0 0 10 10" refX="9" refY="5" markerWidth="7" markerHeight="7" orient="auto-start-reverse"><path d="M0,1 L10,5 L0,9" fill="none" stroke="#7a6a55" stroke-width="1.2"/></marker><pattern id="metal" width="16.83" height="16.83" patternUnits="userSpaceOnUse" patternTransform="rotate(45)"><line x1="0" y1="0" x2="0" y2="16.83" stroke="#7a6a55" stroke-width="1.964"/></pattern><pattern id="grain" width="22.44" height="14.025" patternUnits="userSpaceOnUse"><path d="M0,11.22 Q5.61,0 11.22,7.013 T22.44,2.805" fill="none" stroke="#7a6a55" stroke-width="1.683"/></pattern><pattern id="stipple" width="25.245" height="25.245" patternUnits="userSpaceOnUse"><circle cx="5.61" cy="8.415" r="1.964" fill="#7a6a55"/><circle cx="18.233" cy="19.635" r="1.683" fill="#7a6a55"/></pattern></defs>
<g data-object="" filter="url(#ink)"><g transform="matrix(0.357 0 0 -0.357 865.062 874.222)"><g transform="translate(0 0)"><rect x="-1350" y="0" width="60" height="640" fill="#f8f1e1" stroke="none"/><rect x="-1350" y="0" width="60" height="640" fill="#9a7446" fill-opacity="0.35" stroke="#2b2118" stroke-width="1.2" vector-effect="non-scaling-stroke" stroke-linejoin="round" stroke-linecap="round"/><rect x="-650" y="0" width="60" height="640" fill="#f8f1e1" stroke="none"/><rect x="-650" y="0" width="60" height="640" fill="#9a7446" fill-opacity="0.35" stroke="#2b2118" stroke-width="1.2" vector-effect="non-scaling-stroke" stroke-linejoin="round" stroke-linecap="round"/><rect x="-1350" y="150" width="760" height="50" fill="#f8f1e1" stroke="none"/><rect x="-1350" y="150" width="760" height="50" fill="#9a7446" fill-opacity="0.35" stroke="#2b2118" stroke-width="1.2" vector-effect="non-scaling-stroke" stroke-linejoin="round" stroke-linecap="round"/><rect x="-1200" y="0" width="90" height="1612" fill="#f8f1e1" stroke="none"/><rect x="-1200" y="0" width="90" height="1612" fill="#9a7446" fill-opacity="0.35" stroke="#2b2118" stroke-width="1.2" vector-effect="non-scaling-stroke" stroke-linejoin="round" stroke-linecap="round"/><path d="M-380,690 L-1450,930 Q-1590,880 -1565,650 Q-1590,420 -1450,380 L-380,610 Z" fill="#f8f1e1" stroke="none"/><path d="M-380,690 L-1450,930 Q-1590,880 -1565,650 Q-1590,420 -1450,380 L-380,610 Z" fill="#7a5230" fill-opacity="0.4" stroke="#2b2118" stroke-width="2" vector-effect="non-scaling-stroke" stroke-linejoin="round" stroke-linecap="round"/><path d="M-648,750 Q-718,700 -648,650 Q-718,601 -648,552" fill="none" stroke="#7a6a55" stroke-width="0.9" vector-effect="non-scaling-stroke" stroke-linejoin="round" stroke-linecap="round"/><path d="M-915,810 Q-985,730 -915,650 Q-985,572 -915,495" fill="none" stroke="#7a6a55" stroke-width="0.9" vector-effect="non-scaling-stroke" stroke-linejoin="round" stroke-linecap="round"/><path d="M-1150,863 Q-1220,756 -1150,650 Q-1220,547 -1150,444" fill="none" stroke="#7a6a55" stroke-width="0.9" vector-effect="non-scaling-stroke" stroke-linejoin="round" stroke-linecap="round"/><polygon points="-380,690 -1460,932 -1466,964 -380,720" fill="#f8f1e1" stroke="none"/><polygon points="-380,690 -1460,932 -1466,964 -380,720" fill="#9a7446" fill-opacity="0.35" stroke="#2b2118" stroke-width="1.2" vector-effect="non-scaling-stroke" stroke-linejoin="round" stroke-linecap="round"/><polygon points="-380,610 -1460,378 -1466,346 -380,580" fill="#f8f1e1" stroke="none"/><polygon points="-380,610 -1460,378 -1466,346 -380,580" fill="#9a7446" fill-opacity="0.35" stroke="#2b2118" stroke-width="1.2" vector-effect="non-scaling-stroke" stroke-linejoin="round" stroke-linecap="round"/><rect x="-1565" y="636" width="1185" height="28" fill="#f8f1e1" stroke="none"/><rect x="-1565" y="636" width="1185" height="28" fill="#9a7446" fill-opacity="0.35" stroke="#2b2118" stroke-width="1.2" vector-effect="non-scaling-stroke" stroke-linejoin="round" stroke-linecap="round"/><polygon points="-1180,858 -1030,826 -1010,894 -1160,920" fill="#f8f1e1" stroke="none"/><polygon points="-1180,858 -1030,826 -1010,894 -1160,920" fill="#8a7a62" fill-opacity="0.2" stroke="#2b2118" stroke-width="1.2" vector-effect="non-scaling-stroke" stroke-linejoin="round" stroke-linecap="round"/><rect x="-480" y="575" width="100" height="150" fill="#f8f1e1" stroke="none"/><rect x="-480" y="575" width="100" height="150" fill="#9a7446" fill-opacity="0.35" stroke="#2b2118" stroke-width="2" vector-effect="non-scaling-stroke" stroke-linejoin="round" stroke-linecap="round"/><polygon points="-380,668 -60,662 -60,638 -380,632" fill="#f8f1e1" stroke="none"/><polygon points="-380,668 -60,662 -60,638 -380,632" fill="#56514b" fill-opacity="0.3" stroke="#2b2118" stroke-width="1.2" vector-effect="non-scaling-stroke" stroke-linejoin="round" stroke-linecap="round"/><rect x="0" y="0" width="1200" height="300" fill="#f8f1e1" stroke="none"/><rect x="0" y="0" width="1200" height="300" fill="#8a7a62" fill-opacity="0.2" stroke="#2b2118" stroke-width="2" vector-effect="non-scaling-stroke" stroke-linejoin="round" stroke-linecap="round"/><rect x="0" y="300" width="1200" height="460" fill="#f8f1e1" stroke="none"/><rect x="0" y="300" width="1200" height="460" fill="#a8664a" fill-opacity="0.3" stroke="#2b2118" stroke-width="2" vector-effect="non-scaling-stroke" stroke-linejoin="round" stroke-linecap="round"/><polyline points="240,0 240,300" fill="none" stroke="#7a6a55" stroke-width="0.9" vector-effect="non-scaling-stroke" stroke-linejoin="round" stroke-linecap="round"/><polyline points="560,0 560,300" fill="none" stroke="#7a6a55" stroke-width="0.9" vector-effect="non-scaling-stroke" stroke-linejoin="round" stroke-linecap="round"/><polyline points="880,0 880,300" fill="none" stroke="#7a6a55" stroke-width="0.9" vector-effect="non-scaling-stroke" stroke-linejoin="round" stroke-linecap="round"/><polyline points="0,375 1200,375" fill="none" stroke="#7a6a55" stroke-width="0.9" vector-effect="non-scaling-stroke" stroke-linejoin="round" stroke-linecap="round"/><polyline points="220,300 220,375" fill="none" stroke="#7a6a55" stroke-width="0.9" vector-effect="non-scaling-stroke" stroke-linejoin="round" stroke-linecap="round"/><polyline points="450,300 450,375" fill="none" stroke="#7a6a55" stroke-width="0.9" vector-effect="non-scaling-stroke" stroke-linejoin="round" stroke-linecap="round"/><polyline points="680,300 680,375" fill="none" stroke="#7a6a55" stroke-width="0.9" vector-effect="non-scaling-stroke" stroke-linejoin="round" stroke-linecap="round"/><polyline points="910,300 910,375" fill="none" stroke="#7a6a55" stroke-width="0.9" vector-effect="non-scaling-stroke" stroke-linejoin="round" stroke-linecap="round"/><polyline points="1140,300 1140,375" fill="none" stroke="#7a6a55" stroke-width="0.9" vector-effect="non-scaling-stroke" stroke-linejoin="round" stroke-linecap="round"/><polyline points="0,450 1200,450" fill="none" stroke="#7a6a55" stroke-width="0.9" vector-effect="non-scaling-stroke" stroke-linejoin="round" stroke-linecap="round"/><polyline points="110,375 110,450" fill="none" stroke="#7a6a55" stroke-width="0.9" vector-effect="non-scaling-stroke" stroke-linejoin="round" stroke-linecap="round"/><polyline points="340,375 340,450" fill="none" stroke="#7a6a55" stroke-width="0.9" vector-effect="non-scaling-stroke" stroke-linejoin="round" stroke-linecap="round"/><polyline points="570,375 570,450" fill="none" stroke="#7a6a55" stroke-width="0.9" vector-effect="non-scaling-stroke" stroke-linejoin="round" stroke-linecap="round"/><polyline points="800,375 800,450" fill="none" stroke="#7a6a55" stroke-width="0.9" vector-effect="non-scaling-stroke" stroke-linejoin="round" stroke-linecap="round"/><polyline points="1030,375 1030,450" fill="none" stroke="#7a6a55" stroke-width="0.9" vector-effect="non-scaling-stroke" stroke-linejoin="round" stroke-linecap="round"/><polyline points="0,525 1200,525" fill="none" stroke="#7a6a55" stroke-width="0.9" vector-effect="non-scaling-stroke" stroke-linejoin="round" stroke-linecap="round"/><polyline points="220,450 220,525" fill="none" stroke="#7a6a55" stroke-width="0.9" vector-effect="non-scaling-stroke" stroke-linejoin="round" stroke-linecap="round"/><polyline points="450,450 450,525" fill="none" stroke="#7a6a55" stroke-width="0.9" vector-effect="non-scaling-stroke" stroke-linejoin="round" stroke-linecap="round"/><polyline points="680,450 680,525" fill="none" stroke="#7a6a55" stroke-width="0.9" vector-effect="non-scaling-stroke" stroke-linejoin="round" stroke-linecap="round"/><polyline points="910,450 910,525" fill="none" stroke="#7a6a55" stroke-width="0.9" vector-effect="non-scaling-stroke" stroke-linejoin="round" stroke-linecap="round"/><polyline points="1140,450 1140,525" fill="none" stroke="#7a6a55" stroke-width="0.9" vector-effect="non-scaling-stroke" stroke-linejoin="round" stroke-linecap="round"/><polyline points="0,600 1200,600" fill="none" stroke="#7a6a55" stroke-width="0.9" vector-effect="non-scaling-stroke" stroke-linejoin="round" stroke-linecap="round"/><polyline points="110,525 110,600" fill="none" stroke="#7a6a55" stroke-width="0.9" vector-effect="non-scaling-stroke" stroke-linejoin="round" stroke-linecap="round"/><polyline points="340,525 340,600" fill="none" stroke="#7a6a55" stroke-width="0.9" vector-effect="non-scaling-stroke" stroke-linejoin="round" stroke-linecap="round"/><polyline points="570,525 570,600" fill="none" stroke="#7a6a55" stroke-width="0.9" vector-effect="non-scaling-stroke" stroke-linejoin="round" stroke-linecap="round"/><polyline points="800,525 800,600" fill="none" stroke="#7a6a55" stroke-width="0.9" vector-effect="non-scaling-stroke" stroke-linejoin="round" stroke-linecap="round"/><polyline points="1030,525 1030,600" fill="none" stroke="#7a6a55" stroke-width="0.9" vector-effect="non-scaling-stroke" stroke-linejoin="round" stroke-linecap="round"/><polyline points="0,675 1200,675" fill="none" stroke="#7a6a55" stroke-width="0.9" vector-effect="non-scaling-stroke" stroke-linejoin="round" stroke-linecap="round"/><polyline points="220,600 220,675" fill="none" stroke="#7a6a55" stroke-width="0.9" vector-effect="non-scaling-stroke" stroke-linejoin="round" stroke-linecap="round"/><polyline points="450,600 450,675" fill="none" stroke="#7a6a55" stroke-width="0.9" vector-effect="non-scaling-stroke" stroke-linejoin="round" stroke-linecap="round"/><polyline points="680,600 680,675" fill="none" stroke="#7a6a55" stroke-width="0.9" vector-effect="non-scaling-stroke" stroke-linejoin="round" stroke-linecap="round"/><polyline points="910,600 910,675" fill="none" stroke="#7a6a55" stroke-width="0.9" vector-effect="non-scaling-stroke" stroke-linejoin="round" stroke-linecap="round"/><polyline points="1140,600 1140,675" fill="none" stroke="#7a6a55" stroke-width="0.9" vector-effect="non-scaling-stroke" stroke-linejoin="round" stroke-linecap="round"/><polyline points="0,750 1200,750" fill="none" stroke="#7a6a55" stroke-width="0.9" vector-effect="non-scaling-stroke" stroke-linejoin="round" stroke-linecap="round"/><polyline points="110,675 110,750" fill="none" stroke="#7a6a55" stroke-width="0.9" vector-effect="non-scaling-stroke" stroke-linejoin="round" stroke-linecap="round"/><polyline points="340,675 340,750" fill="none" stroke="#7a6a55" stroke-width="0.9" vector-effect="non-scaling-stroke" stroke-linejoin="round" stroke-linecap="round"/><polyline points="570,675 570,750" fill="none" stroke="#7a6a55" stroke-width="0.9" vector-effect="non-scaling-stroke" stroke-linejoin="round" stroke-linecap="round"/><polyline points="800,675 800,750" fill="none" stroke="#7a6a55" stroke-width="0.9" vector-effect="non-scaling-stroke" stroke-linejoin="round" stroke-linecap="round"/><polyline points="1030,675 1030,750" fill="none" stroke="#7a6a55" stroke-width="0.9" vector-effect="non-scaling-stroke" stroke-linejoin="round" stroke-linecap="round"/><rect x="0" y="560" width="820" height="200" fill="#f8f1e1" stroke="none"/><rect x="0" y="560" width="820" height="200" fill="#a8664a" fill-opacity="0.3" stroke="#2b2118" stroke-width="1.2" vector-effect="non-scaling-stroke" stroke-linejoin="round" stroke-linecap="round"/><rect x="0" y="560" width="820" height="200" fill="url(#stipple)" stroke="none"/><rect x="-20" y="760" width="1240" height="30" fill="#f8f1e1" stroke="none"/><rect x="-20" y="760" width="1240" height="30" fill="#8a7a62" fill-opacity="0.2" stroke="#2b2118" stroke-width="2" vector-effect="non-scaling-stroke" stroke-linejoin="round" stroke-linecap="round"/><rect x="300" y="640" width="460" height="150" fill="#f8f1e1" fill-opacity="1" stroke="#2b2118" stroke-width="2" vector-effect="non-scaling-stroke" stroke-linejoin="round" stroke-linecap="round"/><polyline points="300,790 300,640 760,640 760,790" fill="none" stroke="#2b2118" stroke-width="2" vector-effect="non-scaling-stroke" stroke-linejoin="round" stroke-linecap="round"/><path d="M420,0 L420,250 Q660,440 900,250 L900,0" fill="#f8f1e1" fill-opacity="1" stroke="#2b2118" stroke-width="2" vector-effect="non-scaling-stroke" stroke-linejoin="round" stroke-linecap="round"/><path d="M300,640 L760,640 L760,735 Q640,775 530,760 Q410,775 300,735 Z" fill="#f8f1e1" stroke="none"/><path d="M300,640 L760,640 L760,735 Q640,775 530,760 Q410,775 300,735 Z" fill="#56514b" fill-opacity="0.55" stroke="#2b2118" stroke-width="1.2" vector-effect="non-scaling-stroke" stroke-linejoin="round" stroke-linecap="round"/><path d="M830,790 Q880,880 990,885 Q1110,880 1170,790 Z" fill="#f8f1e1" stroke="none"/><path d="M830,790 Q880,880 990,885 Q1110,880 1170,790 Z" fill="#56514b" fill-opacity="0.55" stroke="#2b2118" stroke-width="1.2" vector-effect="non-scaling-stroke" stroke-linejoin="round" stroke-linecap="round"/><polygon points="-60,702 300,676 300,624 -60,598" fill="#f8f1e1" stroke="none"/><polygon points="-60,702 300,676 300,624 -60,598" fill="#56514b" fill-opacity="0.3" stroke="#2b2118" stroke-width="2" vector-effect="non-scaling-stroke" stroke-linejoin="round" stroke-linecap="round"/><polyline points="-60,650 300,650" fill="none" stroke="#7a6a55" stroke-width="1" vector-effect="non-scaling-stroke" stroke-linejoin="round" stroke-linecap="round" stroke-dasharray="6 4"/><g data-state="fire-lit"><g data-sound="fire"><ellipse cx="360" cy="660" rx="120" ry="70" fill="#c0662b" fill-opacity="0.5" stroke="none"/><g transform="translate(530 750)"><g ><polygon points="-210,0 -180,156 -150,39 -120,208 -90,39 -60,260 -30,39 0,182 30,39 60,234 90,39 120,156 150,39 180,208 210,0" fill="#c0662b" fill-opacity="0.5" stroke="#9c3b25" stroke-width="1.3" vector-effect="non-scaling-stroke" stroke-linejoin="round" stroke-linecap="round"/><animate attributeName="opacity" values="1;0.6;0.95;0.7;1" keyTimes="0;0.25;0.5;0.75;1" dur="1.3s" repeatCount="indefinite"/></g></g></g></g><polygon points="-1475.529,1706.686 154.471,1476.686 145.529,1413.314 -1484.471,1643.314" fill="#f8f1e1" stroke="none"/><polygon points="-1475.529,1706.686 154.471,1476.686 145.529,1413.314 -1484.471,1643.314" fill="#9a7446" fill-opacity="0.35" stroke="#2b2118" stroke-width="2" vector-effect="non-scaling-stroke" stroke-linejoin="round" stroke-linecap="round"/><circle cx="-1155" cy="1629" r="22" fill="#f8f1e1" stroke="none"/><circle cx="-1155" cy="1629" r="22" fill="#56514b" fill-opacity="0.3" stroke="#2b2118" stroke-width="1.2" vector-effect="non-scaling-stroke" stroke-linejoin="round" stroke-linecap="round"/><polyline points="-1450,1665 -1430,395" fill="none" stroke="#2b2118" stroke-width="1.2" vector-effect="non-scaling-stroke" stroke-linejoin="round" stroke-linecap="round"/><polyline points="140,1420 140,1290" fill="none" stroke="#2b2118" stroke-width="1.2" vector-effect="non-scaling-stroke" stroke-linejoin="round" stroke-linecap="round"/><rect x="110" y="1250" width="60" height="45" fill="#f8f1e1" stroke="none"/><rect x="110" y="1250" width="60" height="45" fill="#56514b" fill-opacity="0.3" stroke="#2b2118" stroke-width="1.2" vector-effect="non-scaling-stroke" stroke-linejoin="round" stroke-linecap="round"/></g></g></g>
<g><circle cx="914.973" cy="414.329" r="11" fill="none" stroke="#9c3b25" stroke-width="1.2" stroke-dasharray="3 2"/><circle cx="1078.966" cy="608.625" r="11" fill="none" stroke="#9c3b25" stroke-width="1.2" stroke-dasharray="3 2"/></g>
<g><g stroke="#7a6a55" stroke-width="0.8" fill="none"><line x1="307.13" y1="878.222" x2="307.13" y2="900.622"/><line x1="843.672" y1="878.222" x2="843.672" y2="900.622"/><line x1="307.13" y1="896.222" x2="843.672" y2="896.222" marker-start="url(#arrow)" marker-end="url(#arrow)"/></g><text x="575.401" y="905.222" dy="4" font-size="12" font-style="italic" text-anchor="middle" fill="#7a6a55" transform="rotate(0 575.401 905.222)">bellows 1.5 m</text><g stroke="#7a6a55" stroke-width="0.8" fill="none"><line x1="865.062" y1="878.222" x2="865.062" y2="900.622"/><line x1="1292.87" y1="878.222" x2="1292.87" y2="900.622"/><line x1="865.062" y1="896.222" x2="1292.87" y2="896.222" marker-start="url(#arrow)" marker-end="url(#arrow)"/></g><text x="1078.966" y="905.222" dy="4" font-size="12" font-style="italic" text-anchor="middle" fill="#7a6a55" transform="rotate(0 1078.966 905.222)">1.2 m</text></g>
<g><text x="272" y="329.203" font-size="13" font-style="italic" text-anchor="end" fill="#2b2118"><tspan x="272" dy="0">rocking lever</tspan></text><polyline points="278,325.203 290,325.203 651.159,325.203" fill="none" stroke="#2b2118" stroke-width="0.7" opacity="0.85"/><circle cx="651.159" cy="325.203" r="1.8" fill="#2b2118"/><text x="272" y="607.277" font-size="13" font-style="italic" text-anchor="end" fill="#2b2118"><tspan x="272" dy="0">leather and ash-wood bellows</tspan></text><polyline points="278,603.277 290,603.277 508.556,603.277" fill="none" stroke="#2b2118" stroke-width="0.7" opacity="0.85"/><circle cx="508.556" cy="603.277" r="1.8" fill="#2b2118"/><text x="1328" y="403.329" font-size="13" font-style="italic" text-anchor="start" fill="#9c3b25"><tspan x="1328" dy="0">needs a second person (or a</tspan><tspan x="1328" dy="15">boy) on this handle whenever</tspan><tspan x="1328" dy="15">the smith works</tspan></text><polyline points="1322,414.329 1310,414.329 914.973,414.329" fill="none" stroke="#9c3b25" stroke-width="0.7" opacity="0.85"/><circle cx="914.973" cy="414.329" r="1.8" fill="#9c3b25"/><text x="1328" y="590.125" font-size="13" font-style="italic" text-anchor="start" fill="#9c3b25"><tspan x="1328" dy="0">can't melt iron in any</tspan><tspan x="1328" dy="15">quantity; a crucible melts a</tspan><tspan x="1328" dy="15">few kg of brass, bronze or</tspan><tspan x="1328" dy="15">lead</tspan></text><polyline points="1322,608.625 1310,608.625 1078.966,608.625" fill="none" stroke="#9c3b25" stroke-width="0.7" opacity="0.85"/><circle cx="1078.966" cy="608.625" r="1.8" fill="#9c3b25"/><text x="1328" y="657.125" font-size="13" font-style="italic" text-anchor="start" fill="#2b2118"><tspan x="1328" dy="0">fire pit, 15 cm deep, for</tspan><tspan x="1328" dy="15">coal or charcoal</tspan></text><polyline points="1322,660.625 1310,660.625 1078.966,624.668" fill="none" stroke="#2b2118" stroke-width="0.7" opacity="0.85"/><circle cx="1078.966" cy="624.668" r="1.8" fill="#2b2118"/><text x="1328" y="694.125" font-size="13" font-style="italic" text-anchor="start" fill="#2b2118"><tspan x="1328" dy="0">welding heat, about 1300 °C,</tspan><tspan x="1328" dy="15">in a fist-sized spot at the</tspan><tspan x="1328" dy="15">nozzle</tspan></text><polyline points="1322,705.125 1310,705.125 982.709,638.928" fill="none" stroke="#2b2118" stroke-width="0.7" opacity="0.85"/><circle cx="982.709" cy="638.928" r="1.8" fill="#2b2118"/><text x="1328" y="746.125" font-size="13" font-style="italic" text-anchor="start" fill="#2b2118"><tspan x="1328" dy="0">cast-iron nozzle (tuyere)</tspan></text><polyline points="1322,742.125 1310,742.125 854.367,642.493" fill="none" stroke="#2b2118" stroke-width="0.7" opacity="0.85"/><circle cx="854.367" cy="642.493" r="1.8" fill="#2b2118"/><text x="1328" y="768.125" font-size="13" font-style="italic" text-anchor="start" fill="#2b2118"><tspan x="1328" dy="0">brick and stone hearth, 1.2</tspan><tspan x="1328" dy="15">by 0.9 m</tspan></text><polyline points="1322,771.625 1310,771.625 1257.219,713.794" fill="none" stroke="#2b2118" stroke-width="0.7" opacity="0.85"/><circle cx="1257.219" cy="713.794" r="1.8" fill="#2b2118"/></g>
<g><rect x="60" y="1148" width="44.563" height="6" fill="#2b2118" stroke="#2b2118" stroke-width="0.8"/><rect x="104.563" y="1148" width="44.563" height="6" fill="#f8f1e1" stroke="#2b2118" stroke-width="0.8"/><rect x="149.127" y="1148" width="44.563" height="6" fill="#2b2118" stroke="#2b2118" stroke-width="0.8"/><rect x="193.69" y="1148" width="44.563" height="6" fill="#f8f1e1" stroke="#2b2118" stroke-width="0.8"/><text x="60" y="1170" font-size="12" text-anchor="middle" fill="#7a6a55">0</text><text x="149.127" y="1170" font-size="12" text-anchor="middle" fill="#7a6a55">25</text><text x="238.253" y="1170" font-size="12" text-anchor="middle" fill="#7a6a55">50 cm</text><text x="1550" y="1136" font-size="22" font-variant="small-caps" text-anchor="end" fill="#2b2118">Hearth and bellows</text><text x="1550" y="1158" font-size="13" font-style="italic" text-anchor="end" fill="#7a6a55">Front view, the fire pit cut open · to scale</text></g>
</svg>
